<svg width="86" height="78" viewBox="0 0 86 78" fill="none" xmlns="http://www.w3.org/2000/svg">
<path d="M13.6367 74.4206C13.6367 72.7941 14.9725 71.4609 16.8959 71.4609C17.887 71.4609 18.6744 71.7617 19.3208 72.3522L18.5256 73.2509C18.1652 72.9166 17.6559 72.6047 16.8959 72.6047C15.8187 72.6047 15 73.3585 15 74.4355C15 75.5235 15.8265 76.1994 16.8959 76.1994C17.8283 76.1994 18.3258 75.7723 18.6901 75.4158L19.5441 76.2588C18.9212 76.9532 18.0516 77.3803 16.8959 77.3803C14.9843 77.3803 13.6367 76.0471 13.6367 74.4206Z" fill="black"/>
<path d="M20.9141 71.5586H22.2264V73.7421H24.9764V71.5586H26.2965V77.2737H24.9764V74.8933H22.2264V77.2737H20.9141V71.5586Z" fill="black"/>
<path d="M30.4103 71.5273H31.4641L34.2845 77.2759H32.8978L32.3964 76.2138H29.431L28.9295 77.2759H27.6016L30.4103 71.5273ZM31.9106 75.1629L30.9274 73.0536L29.9285 75.1629H31.9106Z" fill="black"/>
<path d="M35.5898 71.5586H36.7885L39.6521 75.1793L39.6599 71.5586H40.9448V77.2737H39.7461L36.8747 73.6196V77.2737H35.5898V71.5586Z" fill="black"/>
<path d="M42.5469 74.4206C42.5469 72.8349 43.8396 71.4609 45.8061 71.4609C46.903 71.4609 47.6786 71.8471 48.1252 72.2148L47.4279 73.1469C47.0988 72.9166 46.617 72.6158 45.7983 72.6158C44.5486 72.6158 43.9101 73.5405 43.9101 74.4243C43.9101 75.3081 44.5839 76.2217 45.7983 76.2217C46.4525 76.2217 46.9186 76.0434 47.2124 75.7575V74.8328H45.9001V73.9267H48.4268V76.2662C47.9881 76.8715 47.0988 77.3877 45.7865 77.3877C43.9532 77.3803 42.5469 76.0954 42.5469 74.4206Z" fill="black"/>
<path d="M49.4453 71.5586H50.8242L51.9642 75.2127L53.1629 71.5586H54.1892L55.4467 75.2053L56.5318 71.5586H57.9028L55.952 77.2737H54.9178L53.6682 73.5787L52.4264 77.2737H51.3922L49.4453 71.5586Z" fill="black"/>
<path d="M58.7852 74.4206C58.7852 72.7941 60.0544 71.4609 61.966 71.4609C63.8895 71.4609 65.1587 72.7941 65.1587 74.4206C65.1587 76.0546 63.8816 77.3803 61.966 77.3803C60.0622 77.3803 58.7852 76.0546 58.7852 74.4206ZM63.7876 74.4206C63.7876 73.3585 63.0472 72.6233 61.966 72.6233C60.8966 72.6233 60.1562 73.3585 60.1562 74.4206C60.1562 75.4678 60.9162 76.2291 61.966 76.2291C63.0276 76.2254 63.7876 75.4678 63.7876 74.4206Z" fill="black"/>
<path d="M66.7812 71.5586H67.9799L70.8435 75.1793L70.8513 71.5586H72.1362V77.2737H70.9375L68.0661 73.6196V77.2737H66.7812V71.5586Z" fill="black"/>
<path d="M0 62.7756L1.71971 60.9968C2.80482 61.9104 4.1563 62.5417 5.71541 62.5417C7.06689 62.5417 8.04623 62.1258 8.04623 61.3273C8.04623 60.4807 7.02772 60.165 6.15415 59.9645C4.87318 59.6823 3.99961 59.5486 2.85966 59.0992C1.07335 58.3862 0.599354 57.1719 0.599354 56.1581C0.599354 53.9969 2.96543 52.8828 5.50779 52.8828C7.69758 52.8828 9.46822 53.5958 10.4867 54.3794L9.1705 56.2064C8.59074 55.8239 7.27843 55.1443 5.61356 55.1443C5.13956 55.1443 3.35325 55.1443 3.35325 56.2584C3.35325 56.9565 4.00353 57.287 5.56263 57.6213C7.65057 58.052 10.7531 58.635 10.7531 61.4425C10.7531 63.9194 8.03448 64.8997 5.82901 64.8997C2.71864 64.8997 0.56018 63.3735 0 62.7756Z" fill="black"/>
<path d="M26.0973 53.0664V64.6823H23.4844V57.2367L19.9431 61.8897L16.4215 57.2218V64.6823H13.8086V53.0664H16.2608L19.9431 58.1354L23.5902 53.0664H26.0973Z" fill="black"/>
<path d="M32.8937 55.2945H29.0547V53.0664H39.3965V55.2945H35.5732V64.6823H32.8898V55.2945H32.8937Z" fill="black"/>
<path d="M40.875 58.887C40.875 55.5783 43.4526 52.8711 47.3425 52.8711C51.252 52.8711 53.8297 55.5783 53.8297 58.887C53.8297 62.2106 51.2364 64.9029 47.3425 64.9029C43.4683 64.8992 40.875 62.2069 40.875 58.887ZM51.0405 58.887C51.0405 56.7257 49.5323 55.2292 47.3425 55.2292C45.1684 55.2292 43.6602 56.7257 43.6602 58.887C43.6602 61.0148 45.2037 62.5597 47.3425 62.5597C49.501 62.556 51.0405 61.0111 51.0405 58.887Z" fill="black"/>
<path d="M55.4258 53.0664H58.2306L60.5457 60.4934L62.9823 53.0664H65.0702L67.6283 60.4786L69.8376 53.0664H72.6268L68.6663 64.6823H66.5627L64.0204 57.1698L61.4976 64.6823H59.394L55.4258 53.0664Z" fill="black"/>
<path d="M74.8867 53.0664H77.3233L83.1445 60.4266L83.1601 53.0664H85.773V64.6823H83.3364L77.4996 57.2552V64.6823H74.8867V53.0664Z" fill="black"/>
<path d="M25.455 42.1132C23.4006 42.1132 21.4668 41.3527 20.0106 39.9679L9.17765 29.6766C8.4032 28.938 7.97656 27.9577 7.97656 26.9114C7.9812 25.8695 8.41248 24.8892 9.19157 24.1551C10.7868 22.6516 13.3791 22.656 14.9698 24.1682L27.7783 36.3411C28.7197 37.2379 29.893 37.8314 31.1729 38.0776C32.7218 35.6377 32.3925 32.411 30.1758 30.3052L15.0022 15.8859C11.9972 13.0329 11.9972 8.38616 15.0022 5.53308C16.4769 4.13071 18.4478 3.3526 20.5393 3.38777C20.8454 2.93497 21.2025 2.50855 21.6152 2.12169C24.6156 -0.713812 29.4942 -0.70502 32.4853 2.13488L43.4017 12.5141L54.8422 1.6513C56.3494 0.222562 58.5058 -0.186278 60.4721 0.583044C61.9931 1.18092 63.069 2.35028 63.4864 3.78782C64.9379 3.03608 66.6676 2.94376 68.2768 3.57241C70.4239 4.41207 71.7595 6.30679 71.7595 8.51804V25.597C71.7595 27.9841 69.7191 29.9228 67.2056 29.9228C64.6967 29.9228 62.6516 27.9841 62.6516 25.597V5.6254L52.3937 15.376C51.4013 16.3168 50.0843 16.8355 48.6838 16.8355C47.2833 16.8355 45.9662 16.3168 44.9738 15.376L43.4017 13.8813L42.196 15.0243C40.9996 16.1585 39.7196 16.7344 38.3794 16.7344C36.965 16.7344 35.5784 16.097 34.2521 14.8397L25.1767 6.21448C24.073 5.1638 22.6447 4.52637 21.1097 4.38129C20.6228 5.26931 20.3631 6.26283 20.3631 7.29592C20.3585 8.99722 21.0541 10.593 22.3201 11.7932L37.9621 26.6608C40.9671 29.5183 40.9671 34.165 37.9621 37.0225C36.5059 38.4073 34.5675 39.1678 32.5085 39.1678C32.221 39.1678 31.9381 39.1546 31.6598 39.1238C31.4326 39.4184 31.1775 39.6997 30.8993 39.9679C29.4478 41.3527 27.514 42.1132 25.455 42.1132ZM9.91036 24.8408C9.32605 25.3948 9.00143 26.1289 8.99679 26.9114C8.99216 27.6939 9.31678 28.4325 9.90109 28.9908L20.7341 39.2865C21.9955 40.4866 23.6742 41.1461 25.455 41.1461C27.2357 41.1461 28.9145 40.4866 30.1758 39.2865C30.2964 39.1722 30.417 39.0491 30.5283 38.926C29.2298 38.6007 28.0334 37.9501 27.0595 37.0225L14.251 24.854C13.0592 23.7198 11.1115 23.711 9.91036 24.8408ZM32.272 38.2007C34.1362 38.2578 35.9216 37.5984 37.2433 36.3411C39.8541 33.8617 39.8541 29.826 37.2433 27.3466L21.5966 12.479C20.1405 11.0942 19.3382 9.2522 19.3429 7.29592C19.3429 6.27163 19.5655 5.2781 19.9875 4.3681C18.3783 4.47361 16.8758 5.11984 15.7257 6.21448C13.1195 8.69389 13.1195 12.7251 15.7257 15.2045L30.8993 29.6282C33.3386 31.945 33.793 35.4399 32.272 38.2007ZM63.6672 4.81211C63.6719 4.91762 63.6765 5.02313 63.6765 5.12863V25.597C63.6765 27.4477 65.2625 28.9556 67.2102 28.9556C69.1579 28.9556 70.7439 27.4477 70.7439 25.597V8.51804C70.7439 6.70684 69.6495 5.15501 67.8919 4.46482C66.459 3.90651 64.9147 4.04719 63.6672 4.81211ZM44.1252 13.1999L45.7019 14.699C46.4995 15.4595 47.5615 15.8772 48.693 15.8772C49.8246 15.8772 50.8819 15.4595 51.6795 14.699L62.1554 4.74178C62.2946 4.60989 62.4383 4.4868 62.5821 4.3725C62.327 3.07564 61.4181 2.00299 60.0872 1.48425C58.5058 0.864396 56.776 1.1941 55.5657 2.34149L44.1252 13.1999ZM21.7079 3.48448C23.2893 3.73067 24.7454 4.43405 25.9002 5.53308L34.9802 14.1627C37.1552 16.2288 39.4136 16.308 41.4772 14.3473L42.6829 13.1999L31.7618 2.82067C29.1649 0.350049 24.9356 0.345653 22.334 2.80748C22.1068 3.0185 21.8981 3.24709 21.7079 3.48448Z" fill="black"/>
<path d="M67.213 41.6205C64.528 41.6205 62.3438 39.5456 62.3438 36.9958C62.3438 34.4461 64.528 32.3711 67.213 32.3711C69.8981 32.3711 72.0823 34.4461 72.0823 36.9958C72.0823 39.5456 69.8935 41.6205 67.213 41.6205ZM67.213 33.3382C65.0891 33.3382 63.364 34.978 63.364 36.9958C63.364 39.0136 65.0891 40.6534 67.213 40.6534C69.337 40.6534 71.0621 39.0136 71.0621 36.9958C71.0621 34.978 69.3323 33.3382 67.213 33.3382Z" fill="black"/>
</svg>
