<svg width="87" height="82" viewBox="0 0 87 82" fill="none" xmlns="http://www.w3.org/2000/svg">
<g opacity="0.5">
<path d="M13.9023 78.4688C13.9023 76.7686 15.2382 75.375 17.1616 75.375C18.1527 75.375 18.94 75.6894 19.5864 76.3066L18.7912 77.246C18.4308 76.8967 17.9215 76.5706 17.1616 76.5706C16.0843 76.5706 15.2656 77.3586 15.2656 78.4843C15.2656 79.6217 16.0921 80.3282 17.1616 80.3282C18.0939 80.3282 18.5914 79.8818 18.9557 79.5091L19.8097 80.3903C19.1868 81.1162 18.3172 81.5626 17.1616 81.5626C15.2499 81.5626 13.9023 80.169 13.9023 78.4688Z" fill="white"/>
<path d="M21.1797 75.4766H22.492V77.7591H25.242V75.4766H26.5621V81.4507H25.242V78.9624H22.492V81.4507H21.1797V75.4766Z" fill="white"/>
<path d="M30.6759 75.4453H31.7297L34.5502 81.4544H33.1634L32.662 80.3442H29.6966L29.1952 81.4544H27.8672L30.6759 75.4453ZM32.1763 79.2456L31.193 77.0407L30.1941 79.2456H32.1763Z" fill="white"/>
<path d="M35.8555 75.4766H37.0542L39.9177 79.2613L39.9256 75.4766H41.2105V81.4507H40.0118L37.1404 77.631V81.4507H35.8555V75.4766Z" fill="white"/>
<path d="M42.8125 78.4688C42.8125 76.8113 44.1052 75.375 46.0717 75.375C47.1686 75.375 47.9442 75.7787 48.3908 76.163L47.6935 77.1374C47.3644 76.8967 46.8826 76.5822 46.0639 76.5822C44.8143 76.5822 44.1757 77.5488 44.1757 78.4727C44.1757 79.3966 44.8495 80.3515 46.0639 80.3515C46.7181 80.3515 47.1842 80.1652 47.478 79.8663V78.8997H46.1657V77.9525H48.6924V80.3981C48.2537 81.0308 47.3644 81.5704 46.0521 81.5704C44.2188 81.5626 42.8125 80.2195 42.8125 78.4688Z" fill="white"/>
<path d="M49.7109 75.4766H51.0898L52.2298 79.2963L53.4285 75.4766H54.4548L55.7123 79.2885L56.7974 75.4766H58.1685L56.2176 81.4507H55.1835L53.9338 77.5883L52.692 81.4507H51.6579L49.7109 75.4766Z" fill="white"/>
<path d="M59.0508 78.4688C59.0508 76.7686 60.32 75.375 62.2317 75.375C64.1551 75.375 65.4243 76.7686 65.4243 78.4688C65.4243 80.1768 64.1472 81.5626 62.2317 81.5626C60.3278 81.5626 59.0508 80.1768 59.0508 78.4688ZM64.0532 78.4688C64.0532 77.3586 63.3128 76.59 62.2317 76.59C61.1622 76.59 60.4218 77.3586 60.4218 78.4688C60.4218 79.5635 61.1818 80.3593 62.2317 80.3593C63.2933 80.3554 64.0532 79.5635 64.0532 78.4688Z" fill="white"/>
<path d="M67.0469 75.4766H68.2456L71.1091 79.2613L71.117 75.4766H72.4019V81.4507H71.2032L68.3318 77.631V81.4507H67.0469V75.4766Z" fill="white"/>
<path d="M0.265625 66.2904L1.98534 64.431C3.07044 65.3859 4.42192 66.0458 5.98102 66.0458C7.3325 66.0458 8.31184 65.6111 8.31184 64.7765C8.31184 63.8914 7.29333 63.5615 6.41976 63.3518C5.13879 63.0568 4.26523 62.9171 3.12528 62.4474C1.33898 61.7021 0.864978 60.4327 0.864978 59.373C0.864978 57.1138 3.23105 55.9492 5.7734 55.9492C7.96319 55.9492 9.73383 56.6945 10.7523 57.5136L9.43611 59.4234C8.85635 59.0236 7.54404 58.3132 5.87917 58.3132C5.40517 58.3132 3.61887 58.3132 3.61887 59.4778C3.61887 60.2076 4.26914 60.5531 5.82824 60.9024C7.91618 61.3527 11.0187 61.9621 11.0187 64.8968C11.0187 67.486 8.30008 68.5108 6.09462 68.5108C2.98426 68.5108 0.825804 66.9153 0.265625 66.2904Z" fill="white"/>
<path d="M26.3629 56.1445V68.2869H23.75V60.5038L20.2088 65.3677L16.6871 60.4883V68.2869H14.0742V56.1445H16.5265L20.2088 61.4432L23.8558 56.1445H26.3629Z" fill="white"/>
<path d="M33.1593 58.4736H29.3203V56.1445H39.6621V58.4736H35.8388V68.2869H33.1554V58.4736H33.1593Z" fill="white"/>
<path d="M41.1406 62.226C41.1406 58.7673 43.7182 55.9375 47.6082 55.9375C51.5177 55.9375 54.0953 58.7673 54.0953 62.226C54.0953 65.7003 51.502 68.5146 47.6082 68.5146C43.7339 68.5107 41.1406 65.6964 41.1406 62.226ZM51.3061 62.226C51.3061 59.9668 49.7979 58.4025 47.6082 58.4025C45.434 58.4025 43.9259 59.9668 43.9259 62.226C43.9259 64.4503 45.4693 66.0652 47.6082 66.0652C49.7666 66.0613 51.3061 64.4464 51.3061 62.226Z" fill="white"/>
<path d="M55.6914 56.1445H58.4962L60.8114 63.9082L63.2479 56.1445H65.3359L67.8939 63.8926L70.1033 56.1445H72.8924L68.932 68.2869H66.8284L64.286 60.4339L61.7633 68.2869H59.6597L55.6914 56.1445Z" fill="white"/>
<path d="M75.1523 56.1445H77.5889L83.4101 63.8383L83.4258 56.1445H86.0386V68.2869H83.602L77.7652 60.5232V68.2869H75.1523V56.1445Z" fill="white"/>
<path d="M25.7206 44.6937C23.6662 44.6937 21.7324 43.8987 20.2763 42.4512L9.44328 31.6934C8.66883 30.9214 8.24219 29.8967 8.24219 28.803C8.24682 27.7139 8.67811 26.6891 9.45719 25.9217C11.0525 24.3501 13.6448 24.3547 15.2354 25.9355L28.0439 38.66C28.9853 39.5975 30.1586 40.2178 31.4385 40.4752C32.9874 37.9248 32.6581 34.5518 30.4415 32.3506L15.2679 17.2778C12.2628 14.2954 12.2628 9.43811 15.2679 6.45572C16.7426 4.9898 18.7135 4.17642 20.8049 4.21318C21.111 3.73986 21.4681 3.29411 21.8808 2.88972C24.8812 -0.0742884 29.7598 -0.0650978 32.7509 2.90351L43.6674 13.7532L55.1079 2.39802C56.615 0.904523 58.7714 0.477155 60.7377 1.28134C62.2587 1.90631 63.3346 3.12868 63.752 4.63136C65.2035 3.84555 66.9332 3.74905 68.5424 4.40619C70.6895 5.2839 72.0251 7.2645 72.0251 9.57597V27.429C72.0251 29.9242 69.9847 31.9508 67.4712 31.9508C64.9623 31.9508 62.9173 29.9242 62.9173 27.429V6.55222L52.6593 16.7447C51.6669 17.7281 50.3499 18.2704 48.9494 18.2704C47.5489 18.2704 46.2318 17.7281 45.2394 16.7447L43.6674 15.1823L42.4616 16.3771C41.2652 17.5627 39.9853 18.1647 38.645 18.1647C37.2306 18.1647 35.8441 17.4984 34.5178 16.1841L25.4423 7.168C24.3386 6.06971 22.9103 5.40338 21.3753 5.25174C20.8884 6.18 20.6287 7.21855 20.6287 8.29846C20.6241 10.0769 21.3197 11.745 22.5857 12.9995L38.2277 28.541C41.2327 31.528 41.2327 36.3853 38.2277 39.3723C36.7715 40.8198 34.8331 41.6148 32.7741 41.6148C32.4866 41.6148 32.2037 41.601 31.9254 41.5689C31.6982 41.8768 31.4431 42.1709 31.1649 42.4512C29.7134 43.8987 27.7796 44.6937 25.7206 44.6937ZM10.176 26.6385C9.59167 27.2176 9.26706 27.985 9.26242 28.803C9.25778 29.6209 9.5824 30.393 10.1667 30.9766L20.9997 41.7389C22.2611 42.9934 23.9398 43.6827 25.7206 43.6827C27.5014 43.6827 29.1801 42.9934 30.4415 41.7389C30.562 41.6194 30.6826 41.4908 30.7939 41.3621C29.4954 41.022 28.299 40.3419 27.3251 39.3723L14.5166 26.6523C13.3248 25.4667 11.3771 25.4575 10.176 26.6385ZM32.5376 40.6039C34.4018 40.6636 36.1872 39.9743 37.5089 38.66C40.1197 36.0682 40.1197 31.8497 37.5089 29.2579L21.8623 13.7164C20.4061 12.2689 19.6038 10.3434 19.6085 8.29846C19.6085 7.22774 19.8311 6.18919 20.2531 5.23795C18.6439 5.34824 17.1414 6.02376 15.9913 7.168C13.3851 9.75979 13.3851 13.9737 15.9913 16.5655L31.1649 31.6429C33.6042 34.0647 34.0586 37.718 32.5376 40.6039ZM63.9328 5.70208C63.9375 5.81237 63.9421 5.92266 63.9421 6.03295V27.429C63.9421 29.3636 65.5281 30.9398 67.4758 30.9398C69.4235 30.9398 71.0095 29.3636 71.0095 27.429V9.57597C71.0095 7.68268 69.9151 6.06052 68.1575 5.33905C66.7246 4.75544 65.1803 4.90249 63.9328 5.70208ZM44.3908 14.47L45.9675 16.037C46.7652 16.832 47.8271 17.2686 48.9586 17.2686C50.0902 17.2686 51.1475 16.832 51.9451 16.037L62.421 5.62856C62.5602 5.49069 62.7039 5.36202 62.8477 5.24254C62.5926 3.88691 61.6837 2.76565 60.3528 2.22339C58.7714 1.57545 57.0417 1.9201 55.8313 3.11949L44.3908 14.47ZM21.9736 4.31428C23.5549 4.57162 25.0111 5.30688 26.1658 6.45572L35.2458 15.4764C37.4208 17.6362 39.6792 17.719 41.7428 15.6694L42.9486 14.47L32.0275 3.62038C29.4305 1.03779 25.2012 1.03319 22.5996 3.6066C22.3724 3.82717 22.1637 4.06613 21.9736 4.31428Z" fill="white"/>
<path d="M67.4787 44.1804C64.7936 44.1804 62.6094 42.0113 62.6094 39.346C62.6094 36.6807 64.7936 34.5117 67.4787 34.5117C70.1637 34.5117 72.3479 36.6807 72.3479 39.346C72.3479 42.0113 70.1591 44.1804 67.4787 44.1804ZM67.4787 35.5227C65.3547 35.5227 63.6296 37.2368 63.6296 39.346C63.6296 41.4553 65.3547 43.1694 67.4787 43.1694C69.6026 43.1694 71.3277 41.4553 71.3277 39.346C71.3277 37.2368 69.598 35.5227 67.4787 35.5227Z" fill="white"/>
</g>
</svg>
