<svg width="123" height="116" viewBox="0 0 123 116" fill="none" xmlns="http://www.w3.org/2000/svg">
<path d="M20.1641 111.299C20.1641 108.883 22.0625 106.902 24.7961 106.902C26.2047 106.902 27.3237 107.349 28.2424 108.226L27.1122 109.561C26.6 109.065 25.8762 108.602 24.7961 108.602C23.2651 108.602 22.1015 109.721 22.1015 111.321C22.1015 112.938 23.2762 113.942 24.7961 113.942C26.1212 113.942 26.8282 113.307 27.346 112.778L28.5597 114.03C27.6745 115.062 26.4385 115.696 24.7961 115.696C22.0792 115.696 20.1641 113.716 20.1641 111.299Z" fill="white"/>
<path d="M30.5117 107.047H32.3768V110.291H36.285V107.047H38.1611V115.537H36.285V112.001H32.3768V115.537H30.5117V107.047Z" fill="white"/>
<path d="M44.0075 107H45.5051L49.5137 115.54H47.5428L46.8302 113.962H42.6156L41.903 115.54H40.0156L44.0075 107ZM46.1398 112.401L44.7424 109.267L43.3227 112.401H46.1398Z" fill="white"/>
<path d="M51.3672 107.047H53.0708L57.1406 112.426L57.1518 107.047H58.9779V115.537H57.2743L53.1933 110.109V115.537H51.3672V107.047Z" fill="white"/>
<path d="M61.2539 111.299C61.2539 108.944 63.0912 106.902 65.8861 106.902C67.4451 106.902 68.5474 107.476 69.1821 108.022L68.1911 109.407C67.7234 109.065 67.0386 108.618 65.875 108.618C64.0989 108.618 63.1914 109.992 63.1914 111.305C63.1914 112.618 64.149 113.975 65.875 113.975C66.8048 113.975 67.4673 113.71 67.8849 113.285V111.912H66.0198V110.566H69.6108V114.041C68.9873 114.941 67.7234 115.707 65.8583 115.707C63.2527 115.696 61.2539 113.787 61.2539 111.299Z" fill="white"/>
<path d="M71.0625 107.047H73.0223L74.6424 112.476L76.3461 107.047H77.8048L79.5919 112.465L81.1341 107.047H83.0828L80.3101 115.537H78.8403L77.0643 110.048L75.2994 115.537H73.8296L71.0625 107.047Z" fill="white"/>
<path d="M84.332 111.299C84.332 108.883 86.1359 106.902 88.8529 106.902C91.5865 106.902 93.3904 108.883 93.3904 111.299C93.3904 113.727 91.5754 115.696 88.8529 115.696C86.147 115.696 84.332 113.727 84.332 111.299ZM91.4418 111.299C91.4418 109.721 90.3895 108.629 88.8529 108.629C87.3329 108.629 86.2807 109.721 86.2807 111.299C86.2807 112.855 87.3608 113.986 88.8529 113.986C90.3616 113.981 91.4418 112.855 91.4418 111.299Z" fill="white"/>
<path d="M95.6953 107.047H97.399L101.469 112.426L101.48 107.047H103.306V115.537H101.603L97.5215 110.109V115.537H95.6953V107.047Z" fill="white"/>
<path d="M0.789062 93.994L3.23318 91.3514C4.77537 92.7085 6.69615 93.6464 8.91201 93.6464C10.8328 93.6464 12.2247 93.0285 12.2247 91.8424C12.2247 90.5845 10.7771 90.1156 9.53556 89.8176C7.715 89.3984 6.47345 89.1998 4.85332 88.5322C2.31455 87.473 1.64089 85.6689 1.64089 84.1628C1.64089 80.952 5.00364 79.2969 8.61693 79.2969C11.7291 79.2969 14.2456 80.3561 15.6932 81.5202L13.8225 84.2345C12.9985 83.6663 11.1334 82.6567 8.76725 82.6567C8.09359 82.6567 5.55482 82.6567 5.55482 84.3118C5.55482 85.3489 6.47902 85.8399 8.69487 86.3365C11.6623 86.9764 16.0718 87.8426 16.0718 92.0134C16.0718 95.6932 12.2079 97.1496 9.07346 97.1496C4.65289 97.1496 1.58521 94.8822 0.789062 93.994Z" fill="white"/>
<path d="M37.8829 79.5664V96.8233H34.1695V85.7619L29.1365 92.6746L24.1314 85.7398V96.8233H20.418V79.5664H23.9032L29.1365 87.097L34.3198 79.5664H37.8829Z" fill="white"/>
<path d="M47.5421 82.8805H42.0859V79.5703H56.7841V82.8805H51.3502V96.8273H47.5365V82.8805H47.5421Z" fill="white"/>
<path d="M58.8828 88.2148C58.8828 83.2992 62.5462 79.2773 68.0746 79.2773C73.6308 79.2773 77.2942 83.2992 77.2942 88.2148C77.2942 93.1524 73.6086 97.1522 68.0746 97.1522C62.5684 97.1467 58.8828 93.1469 58.8828 88.2148ZM73.3302 88.2148C73.3302 85.0039 71.1868 82.7806 68.0746 82.7806C64.9847 82.7806 62.8412 85.0039 62.8412 88.2148C62.8412 91.376 65.0348 93.671 68.0746 93.671C71.1422 93.6655 73.3302 91.3705 73.3302 88.2148Z" fill="white"/>
<path d="M79.5664 79.5664H83.5527L86.8431 90.6003L90.306 79.5664H93.2735L96.909 90.5782L100.049 79.5664H104.013L98.3844 96.8233H95.3947L91.7814 85.6626L88.1959 96.8233H85.2062L79.5664 79.5664Z" fill="white"/>
<path d="M107.223 79.5703H110.686L118.959 90.5049L118.981 79.5703H122.695V96.8273H119.232L110.936 85.7934V96.8273H107.223V79.5703Z" fill="white"/>
<path d="M36.9658 63.2992C34.046 63.2992 31.2977 62.1693 29.2282 60.1121L13.832 44.8229C12.7314 43.7257 12.125 42.2693 12.125 40.7149C12.1316 39.1671 12.7445 37.7106 13.8518 36.62C16.119 34.3863 19.8033 34.3929 22.0639 36.6395L40.2678 54.724C41.6057 56.0563 43.2732 56.938 45.0922 57.3037C47.2936 53.679 46.8256 48.8852 43.6752 45.7569L22.1101 24.3351C17.8392 20.0964 17.8392 13.1931 22.1101 8.95451C24.206 6.87111 27.0071 5.71511 29.9795 5.76736C30.4145 5.09467 30.922 4.46116 31.5086 3.88643C35.7728 -0.326089 42.7064 -0.313027 46.9574 3.90602L62.4722 19.3258L78.7318 3.18761C80.8738 1.06502 83.9385 0.457634 86.733 1.60056C88.8948 2.48878 90.4238 4.22604 91.017 6.36169C93.0799 5.24488 95.5383 5.10773 97.8253 6.04167C100.877 7.28909 102.775 10.104 102.775 13.3891V38.7621C102.775 42.3085 99.8751 45.1887 96.3028 45.1887C92.7372 45.1887 89.8307 42.3085 89.8307 38.7621V9.09166L75.2518 23.5775C73.8414 24.9751 71.9696 25.7458 69.9791 25.7458C67.9887 25.7458 66.1169 24.9751 64.7065 23.5775L62.4722 21.3569L60.7586 23.055C59.0582 24.74 57.2391 25.5956 55.3344 25.5956C53.3242 25.5956 51.3535 24.6486 49.4685 22.7807L36.5703 9.96682C35.0017 8.4059 32.9717 7.4589 30.7902 7.24338C30.0981 8.56264 29.7291 10.0387 29.7291 11.5734C29.7225 14.101 30.7111 16.4717 32.5104 18.2547L54.7412 40.3426C59.012 44.5878 59.012 51.4911 54.7412 55.7363C52.6717 57.7936 49.9167 58.9234 46.9904 58.9234C46.5818 58.9234 46.1797 58.9038 45.7843 58.8581C45.4613 59.2957 45.0988 59.7137 44.7034 60.1121C42.6405 62.1693 39.8921 63.2992 36.9658 63.2992ZM14.8734 37.6388C14.0429 38.4617 13.5816 39.5524 13.575 40.7149C13.5684 41.8774 14.0297 42.9746 14.8602 43.8041L30.2563 59.0998C32.049 60.8827 34.4349 61.8624 36.9658 61.8624C39.4966 61.8624 41.8825 60.8827 43.6752 59.0998C43.8466 58.93 44.0179 58.7471 44.1761 58.5642C42.3307 58.0809 40.6303 57.1143 39.2462 55.7363L21.0424 37.6584C19.3485 35.9734 16.5804 35.9603 14.8734 37.6388ZM46.6543 57.4866C49.3038 57.5715 51.8412 56.5918 53.7196 54.724C57.4302 51.0405 57.4302 45.045 53.7196 41.3615L31.4822 19.2735C29.4127 17.2163 28.2725 14.4798 28.2791 11.5734C28.2791 10.0517 28.5954 8.57571 29.1952 7.22378C26.9082 7.38053 24.7728 8.34059 23.1382 9.96682C19.4342 13.6503 19.4342 19.6393 23.1382 23.3228L44.7034 44.7511C48.1702 48.1929 48.816 53.3851 46.6543 57.4866ZM91.2741 7.88342C91.2806 8.04016 91.2872 8.19691 91.2872 8.35365V38.7621C91.2872 41.5117 93.5413 43.7518 96.3094 43.7518C99.0776 43.7518 101.332 41.5117 101.332 38.7621V13.3891C101.332 10.6983 99.7762 8.39284 97.2783 7.36747C95.2417 6.53802 93.047 6.74702 91.2741 7.88342ZM63.5004 20.3446L65.7413 22.5717C66.8749 23.7016 68.3842 24.322 69.9923 24.322C71.6005 24.322 73.1032 23.7016 74.2368 22.5717L89.1255 7.77892C89.3232 7.58299 89.5275 7.40012 89.7318 7.23031C89.3693 5.30366 88.0775 3.71009 86.186 2.93943C83.9385 2.01855 81.4801 2.50838 79.7599 4.21298L63.5004 20.3446ZM31.6404 5.91105C33.8879 6.27678 35.9574 7.32175 37.5985 8.95451L50.5033 21.7749C53.5944 24.8445 56.8041 24.9621 59.737 22.0492L61.4506 20.3446L45.9293 4.92486C42.2384 1.25442 36.2276 1.24789 32.5302 4.90527C32.2072 5.21876 31.9106 5.55837 31.6404 5.91105Z" fill="white"/>
<path d="M96.311 62.5655C92.4949 62.5655 89.3906 59.4829 89.3906 55.6949C89.3906 51.9069 92.4949 48.8242 96.311 48.8242C100.127 48.8242 103.231 51.9069 103.231 55.6949C103.231 59.4829 100.12 62.5655 96.311 62.5655ZM96.311 50.261C93.2924 50.261 90.8406 52.6971 90.8406 55.6949C90.8406 58.6926 93.2924 61.1287 96.311 61.1287C99.3296 61.1287 101.781 58.6926 101.781 55.6949C101.781 52.6971 99.323 50.261 96.311 50.261Z" fill="white"/>
</svg>
