<svg width="33" height="18" viewBox="0 0 33 18" fill="none" xmlns="http://www.w3.org/2000/svg">
<rect x="1.23828" y="2.28516" width="31.2542" height="14.7071" rx="2.5" fill="#B0B7C1" stroke="#B0B7C1"/>
<path d="M13.5575 12.8466C12.3442 12.8466 11.3609 12.4799 10.6075 11.7466L11.1675 11.0566C11.8275 11.6566 12.6175 11.9566 13.5375 11.9566C14.0509 11.9566 14.4709 11.8499 14.7975 11.6366C15.1242 11.4232 15.2875 11.1366 15.2875 10.7766C15.2875 10.5766 15.2309 10.3999 15.1175 10.2466C15.0109 10.0932 14.8509 9.9699 14.6375 9.87656C14.4309 9.78323 14.2709 9.7199 14.1575 9.68656C14.0509 9.65323 13.9042 9.61323 13.7175 9.56656C12.8175 9.36656 12.2009 9.19323 11.8675 9.04656C11.1209 8.6999 10.7475 8.19656 10.7475 7.53656C10.7475 6.9299 11.0075 6.45656 11.5275 6.11656C12.0475 5.77656 12.6675 5.60656 13.3875 5.60656C13.8742 5.60656 14.3509 5.68323 14.8175 5.83656C15.2842 5.9899 15.6775 6.19323 15.9975 6.44656L15.5275 7.17656C14.9275 6.72323 14.2175 6.49656 13.3975 6.49656C12.9175 6.49656 12.5109 6.58323 12.1775 6.75656C11.8509 6.9299 11.6875 7.1799 11.6875 7.50656C11.6875 7.79323 11.8242 8.01323 12.0975 8.16656C12.3775 8.31323 12.8275 8.45323 13.4475 8.58656C13.6609 8.63323 13.8142 8.6699 13.9075 8.69656C14.0075 8.71656 14.1742 8.76323 14.4075 8.83656C14.6475 8.90323 14.8309 8.9699 14.9575 9.03656C15.0842 9.09656 15.2409 9.18656 15.4275 9.30656C15.6142 9.4199 15.7575 9.54323 15.8575 9.67656C15.9575 9.80323 16.0442 9.96323 16.1175 10.1566C16.1909 10.3432 16.2275 10.5466 16.2275 10.7666C16.2275 11.1266 16.1409 11.4466 15.9675 11.7266C15.8009 11.9999 15.5809 12.2166 15.3075 12.3766C15.0409 12.5299 14.7575 12.6466 14.4575 12.7266C14.1575 12.8066 13.8575 12.8466 13.5575 12.8466ZM19.5457 12.7266L16.7957 5.73656L17.8257 5.73656L20.0357 11.4466L22.2757 5.73657L23.2657 5.73657L20.5157 12.7266L19.5457 12.7266Z" fill="white"/>
</svg>
